<mxfile host="65bd71144e">
    <diagram id="_HI-ZCXc5aMtmLZJUmlw" name="Page-1">
        <mxGraphModel dx="1750" dy="1312" grid="0" gridSize="10" guides="1" tooltips="1" connect="1" arrows="1" fold="1" page="0" pageScale="1" pageWidth="827" pageHeight="1169" background="#666666" math="0" shadow="0">
            <root>
                <mxCell id="0"/>
                <mxCell id="1" parent="0"/>
                <mxCell id="2" value="fromServerStream$" style="whiteSpace=wrap;html=1;fontSize=17;" parent="1" vertex="1">
                    <mxGeometry x="261" y="-64" width="180" height="60" as="geometry"/>
                </mxCell>
                <mxCell id="JtPhZTcKICCbWqP8Aqum-13" value="" style="group" parent="1" vertex="1" connectable="0">
                    <mxGeometry x="575" y="-179" width="294" height="290" as="geometry"/>
                </mxCell>
                <mxCell id="4" value="deleteHero$.next(id)" style="whiteSpace=wrap;html=1;fontSize=17;" parent="JtPhZTcKICCbWqP8Aqum-13" vertex="1">
                    <mxGeometry x="47" width="200" height="60" as="geometry"/>
                </mxCell>
                <mxCell id="JtPhZTcKICCbWqP8Aqum-6" value="concatMap -&amp;gt; service.deleteHero()" style="whiteSpace=wrap;html=1;fontSize=17;fillColor=#eeeeee;strokeColor=#36393d;fontColor=#000000;" parent="JtPhZTcKICCbWqP8Aqum-13" vertex="1">
                    <mxGeometry x="12" y="93" width="270" height="40" as="geometry"/>
                </mxCell>
                <mxCell id="JtPhZTcKICCbWqP8Aqum-5" style="edgeStyle=none;html=1;exitX=0.5;exitY=1;exitDx=0;exitDy=0;fontSize=17;entryX=0.5;entryY=0;entryDx=0;entryDy=0;" parent="JtPhZTcKICCbWqP8Aqum-13" source="4" target="JtPhZTcKICCbWqP8Aqum-6" edge="1">
                    <mxGeometry relative="1" as="geometry">
                        <mxPoint x="147" y="88" as="targetPoint"/>
                    </mxGeometry>
                </mxCell>
                <mxCell id="JtPhZTcKICCbWqP8Aqum-8" style="edgeStyle=none;html=1;exitX=0.5;exitY=1;exitDx=0;exitDy=0;fontSize=17;entryX=0.5;entryY=0;entryDx=0;entryDy=0;" parent="JtPhZTcKICCbWqP8Aqum-13" source="JtPhZTcKICCbWqP8Aqum-6" target="JtPhZTcKICCbWqP8Aqum-9" edge="1">
                    <mxGeometry relative="1" as="geometry">
                        <mxPoint x="147" y="142" as="sourcePoint"/>
                        <mxPoint x="147" y="170" as="targetPoint"/>
                    </mxGeometry>
                </mxCell>
                <mxCell id="JtPhZTcKICCbWqP8Aqum-9" value="map -&amp;gt; makeAddHero(): AddHero" style="whiteSpace=wrap;html=1;fontSize=17;fillColor=#eeeeee;strokeColor=#36393d;fontColor=#000000;" parent="JtPhZTcKICCbWqP8Aqum-13" vertex="1">
                    <mxGeometry y="160" width="294" height="40" as="geometry"/>
                </mxCell>
                <mxCell id="JtPhZTcKICCbWqP8Aqum-11" value="= deletedHeroResult$: &lt;font color=&quot;#33ff33&quot;&gt;DeleteHero&lt;/font&gt;" style="whiteSpace=wrap;html=1;fontSize=17;" parent="JtPhZTcKICCbWqP8Aqum-13" vertex="1">
                    <mxGeometry x="10" y="230" width="274" height="60" as="geometry"/>
                </mxCell>
                <mxCell id="JtPhZTcKICCbWqP8Aqum-12" style="edgeStyle=none;html=1;fontSize=17;entryX=0.5;entryY=0;entryDx=0;entryDy=0;exitX=0.5;exitY=1;exitDx=0;exitDy=0;" parent="JtPhZTcKICCbWqP8Aqum-13" source="JtPhZTcKICCbWqP8Aqum-9" target="JtPhZTcKICCbWqP8Aqum-11" edge="1">
                    <mxGeometry relative="1" as="geometry">
                        <mxPoint x="147" y="211" as="sourcePoint"/>
                        <mxPoint x="146.5" y="233" as="targetPoint"/>
                    </mxGeometry>
                </mxCell>
                <mxCell id="JtPhZTcKICCbWqP8Aqum-22" value="switchMap" style="whiteSpace=wrap;html=1;fontSize=17;fillColor=#eeeeee;strokeColor=#36393d;fontColor=#000000;" parent="1" vertex="1">
                    <mxGeometry x="216" y="27" width="270" height="40" as="geometry"/>
                </mxCell>
                <mxCell id="JtPhZTcKICCbWqP8Aqum-26" value="merge" style="whiteSpace=wrap;html=1;fontSize=17;fillColor=#eeeeee;strokeColor=#36393d;fontColor=#000000;" parent="1" vertex="1">
                    <mxGeometry x="216" y="182" width="270" height="40" as="geometry"/>
                </mxCell>
                <mxCell id="JtPhZTcKICCbWqP8Aqum-28" style="edgeStyle=none;html=1;fontSize=17;entryX=0.5;entryY=0;entryDx=0;entryDy=0;exitX=0.5;exitY=1;exitDx=0;exitDy=0;" parent="1" source="2" target="JtPhZTcKICCbWqP8Aqum-22" edge="1">
                    <mxGeometry relative="1" as="geometry">
                        <mxPoint x="350" y="-166" as="sourcePoint"/>
                        <mxPoint x="402" y="-101" as="targetPoint"/>
                    </mxGeometry>
                </mxCell>
                <mxCell id="JtPhZTcKICCbWqP8Aqum-15" value="addHero$.next(name)" style="whiteSpace=wrap;html=1;fontSize=17;" parent="1" vertex="1">
                    <mxGeometry x="-121" y="-176" width="200" height="60" as="geometry"/>
                </mxCell>
                <mxCell id="JtPhZTcKICCbWqP8Aqum-16" value="concatMap -&amp;gt; service.addHero()" style="whiteSpace=wrap;html=1;fontSize=17;fillColor=#eeeeee;strokeColor=#36393d;fontColor=#000000;" parent="1" vertex="1">
                    <mxGeometry x="-156" y="-83" width="270" height="40" as="geometry"/>
                </mxCell>
                <mxCell id="JtPhZTcKICCbWqP8Aqum-17" style="edgeStyle=none;html=1;exitX=0.5;exitY=1;exitDx=0;exitDy=0;fontSize=17;entryX=0.5;entryY=0;entryDx=0;entryDy=0;" parent="1" source="JtPhZTcKICCbWqP8Aqum-15" target="JtPhZTcKICCbWqP8Aqum-16" edge="1">
                    <mxGeometry relative="1" as="geometry">
                        <mxPoint x="-21" y="-88" as="targetPoint"/>
                    </mxGeometry>
                </mxCell>
                <mxCell id="JtPhZTcKICCbWqP8Aqum-18" style="edgeStyle=none;html=1;exitX=0.5;exitY=1;exitDx=0;exitDy=0;fontSize=17;entryX=0.5;entryY=0;entryDx=0;entryDy=0;" parent="1" source="JtPhZTcKICCbWqP8Aqum-16" target="JtPhZTcKICCbWqP8Aqum-19" edge="1">
                    <mxGeometry relative="1" as="geometry">
                        <mxPoint x="-21" y="-34" as="sourcePoint"/>
                        <mxPoint x="-21" y="-6" as="targetPoint"/>
                    </mxGeometry>
                </mxCell>
                <mxCell id="JtPhZTcKICCbWqP8Aqum-19" value="map -&amp;gt; makeAddHero(): AddHero" style="whiteSpace=wrap;html=1;fontSize=17;fillColor=#eeeeee;strokeColor=#36393d;fontColor=#000000;" parent="1" vertex="1">
                    <mxGeometry x="-168" y="-16" width="294" height="40" as="geometry"/>
                </mxCell>
                <mxCell id="JtPhZTcKICCbWqP8Aqum-30" value="" style="edgeStyle=orthogonalEdgeStyle;shape=flexArrow;rounded=1;sketch=0;html=1;shadow=1;fontSize=17;fontColor=#33FF33;strokeWidth=3;entryX=0;entryY=0.5;entryDx=0;entryDy=0;" parent="1" source="JtPhZTcKICCbWqP8Aqum-20" target="JtPhZTcKICCbWqP8Aqum-26" edge="1">
                    <mxGeometry relative="1" as="geometry"/>
                </mxCell>
                <mxCell id="JtPhZTcKICCbWqP8Aqum-20" value="= addedHeroResult$: &lt;font color=&quot;#33ff33&quot;&gt;AddHero&lt;/font&gt;" style="whiteSpace=wrap;html=1;fontSize=17;" parent="1" vertex="1">
                    <mxGeometry x="-153" y="54" width="264" height="60" as="geometry"/>
                </mxCell>
                <mxCell id="JtPhZTcKICCbWqP8Aqum-21" style="edgeStyle=none;html=1;fontSize=17;entryX=0.5;entryY=0;entryDx=0;entryDy=0;exitX=0.5;exitY=1;exitDx=0;exitDy=0;" parent="1" source="JtPhZTcKICCbWqP8Aqum-19" target="JtPhZTcKICCbWqP8Aqum-20" edge="1">
                    <mxGeometry relative="1" as="geometry">
                        <mxPoint x="-21" y="35" as="sourcePoint"/>
                        <mxPoint x="-21.5" y="57" as="targetPoint"/>
                    </mxGeometry>
                </mxCell>
                <mxCell id="8" value="" style="edgeStyle=orthogonalEdgeStyle;shape=flexArrow;rounded=1;sketch=0;html=1;shadow=1;fontSize=17;fontColor=#33FF33;strokeWidth=3;entryX=1;entryY=0.5;entryDx=0;entryDy=0;exitX=0;exitY=0.5;exitDx=0;exitDy=0;" parent="1" source="JtPhZTcKICCbWqP8Aqum-11" target="JtPhZTcKICCbWqP8Aqum-26" edge="1">
                    <mxGeometry relative="1" as="geometry">
                        <mxPoint x="486" y="161" as="sourcePoint"/>
                        <mxPoint x="609" y="277" as="targetPoint"/>
                    </mxGeometry>
                </mxCell>
                <mxCell id="9" value="" style="edgeStyle=orthogonalEdgeStyle;shape=flexArrow;rounded=1;sketch=0;html=1;shadow=1;fontSize=17;fontColor=#33FF33;strokeWidth=3;entryX=0.5;entryY=0;entryDx=0;entryDy=0;exitX=0.5;exitY=1;exitDx=0;exitDy=0;fillColor=#60a917;strokeColor=#2D7600;" parent="1" source="JtPhZTcKICCbWqP8Aqum-22" target="JtPhZTcKICCbWqP8Aqum-26" edge="1">
                    <mxGeometry relative="1" as="geometry">
                        <mxPoint x="131" y="104" as="sourcePoint"/>
                        <mxPoint x="254" y="220" as="targetPoint"/>
                    </mxGeometry>
                </mxCell>
                <mxCell id="12" value="= heroes$:&amp;nbsp;" style="whiteSpace=wrap;html=1;fontSize=17;" parent="1" vertex="1">
                    <mxGeometry x="219" y="376" width="264" height="60" as="geometry"/>
                </mxCell>
                <mxCell id="13" style="edgeStyle=none;html=1;fontSize=17;exitX=0.5;exitY=1;exitDx=0;exitDy=0;entryX=0.5;entryY=0;entryDx=0;entryDy=0;" parent="1" source="JtPhZTcKICCbWqP8Aqum-26" target="14" edge="1">
                    <mxGeometry relative="1" as="geometry">
                        <mxPoint x="-11" y="34" as="sourcePoint"/>
                        <mxPoint x="351" y="255" as="targetPoint"/>
                    </mxGeometry>
                </mxCell>
                <mxCell id="14" value="scan() -&amp;gt; Aufgrund discriminated Uniontypes unterscheiden und Hero[] neu aufbauen&amp;nbsp;" style="whiteSpace=wrap;html=1;fontSize=17;fillColor=#eeeeee;strokeColor=#36393d;fontColor=#000000;" parent="1" vertex="1">
                    <mxGeometry x="206.5" y="245" width="289" height="69" as="geometry"/>
                </mxCell>
                <mxCell id="18" value="" style="edgeStyle=orthogonalEdgeStyle;shape=flexArrow;rounded=1;sketch=0;html=1;shadow=1;fontSize=17;fontColor=#33FF33;strokeWidth=3;exitX=0.5;exitY=1;exitDx=0;exitDy=0;fillColor=#60a917;strokeColor=#2D7600;entryX=0.5;entryY=0;entryDx=0;entryDy=0;" parent="1" source="14" target="12" edge="1">
                    <mxGeometry relative="1" as="geometry">
                        <mxPoint x="353" y="363" as="sourcePoint"/>
                        <mxPoint x="473" y="508" as="targetPoint"/>
                        <Array as="points"/>
                    </mxGeometry>
                </mxCell>
                <mxCell id="19" value="&lt;div style=&quot;color: rgb(212 , 212 , 212) ; background-color: rgb(30 , 30 , 30) ; font-family: &amp;#34;consolas&amp;#34; , &amp;#34;courier new&amp;#34; , monospace ; font-size: 14px ; line-height: 19px&quot;&gt;&lt;div&gt;&lt;span style=&quot;color: #569cd6&quot;&gt;interface&lt;/span&gt; &lt;span style=&quot;color: #4ec9b0&quot;&gt;AddHero&lt;/span&gt; {&lt;/div&gt;&lt;div&gt;&amp;nbsp; &lt;span style=&quot;color: #9cdcfe&quot;&gt;_tag&lt;/span&gt;: &lt;span style=&quot;color: #ce9178&quot;&gt;'add-hero'&lt;/span&gt;;&lt;/div&gt;&lt;div&gt;&amp;nbsp; &lt;span style=&quot;color: #9cdcfe&quot;&gt;hero&lt;/span&gt;: &lt;span style=&quot;color: #4ec9b0&quot;&gt;Hero&lt;/span&gt;;&lt;/div&gt;&lt;div&gt;}&lt;/div&gt;&lt;div&gt;&lt;span style=&quot;color: #569cd6&quot;&gt;const&lt;/span&gt; &lt;span style=&quot;color: #dcdcaa&quot;&gt;makeAddHero&lt;/span&gt; = (&lt;span style=&quot;color: #9cdcfe&quot;&gt;hero&lt;/span&gt;: &lt;span style=&quot;color: #4ec9b0&quot;&gt;Hero&lt;/span&gt;): &lt;span style=&quot;color: #4ec9b0&quot;&gt;AddHero&lt;/span&gt; &lt;span style=&quot;color: #569cd6&quot;&gt;=&amp;gt;&lt;/span&gt;&amp;nbsp;&lt;/div&gt;&lt;div&gt;&amp;nbsp; ({ &lt;span style=&quot;color: #9cdcfe&quot;&gt;_tag&lt;/span&gt;&lt;span style=&quot;color: #9cdcfe&quot;&gt;:&lt;/span&gt; &lt;span style=&quot;color: #ce9178&quot;&gt;'add-hero'&lt;/span&gt;, &lt;span style=&quot;color: #9cdcfe&quot;&gt;hero&lt;/span&gt; });&lt;/div&gt;&lt;br&gt;&lt;div&gt;&lt;span style=&quot;color: #569cd6&quot;&gt;interface&lt;/span&gt; &lt;span style=&quot;color: #4ec9b0&quot;&gt;DeleteHero&lt;/span&gt; {&lt;/div&gt;&lt;div&gt;&amp;nbsp; &lt;span style=&quot;color: #9cdcfe&quot;&gt;_tag&lt;/span&gt;: &lt;span style=&quot;color: #ce9178&quot;&gt;'delete-hero'&lt;/span&gt;;&lt;/div&gt;&lt;div&gt;&amp;nbsp; &lt;span style=&quot;color: #9cdcfe&quot;&gt;id&lt;/span&gt;: &lt;span style=&quot;color: #4ec9b0&quot;&gt;number&lt;/span&gt;;&lt;/div&gt;&lt;div&gt;}&lt;/div&gt;&lt;div&gt;&lt;span style=&quot;color: #569cd6&quot;&gt;const&lt;/span&gt; &lt;span style=&quot;color: #dcdcaa&quot;&gt;makeDeleteHero&lt;/span&gt; = (&lt;span style=&quot;color: #9cdcfe&quot;&gt;id&lt;/span&gt;: &lt;span style=&quot;color: #4ec9b0&quot;&gt;number&lt;/span&gt;): &lt;span style=&quot;color: #4ec9b0&quot;&gt;DeleteHero&lt;/span&gt; &lt;span style=&quot;color: #569cd6&quot;&gt;=&amp;gt;&lt;/span&gt; ({&lt;/div&gt;&lt;div&gt;&amp;nbsp; &lt;span style=&quot;color: #9cdcfe&quot;&gt;_tag&lt;/span&gt;&lt;span style=&quot;color: #9cdcfe&quot;&gt;:&lt;/span&gt; &lt;span style=&quot;color: #ce9178&quot;&gt;'delete-hero'&lt;/span&gt;,&lt;/div&gt;&lt;div&gt;&amp;nbsp; &lt;span style=&quot;color: #9cdcfe&quot;&gt;id&lt;/span&gt;,&lt;/div&gt;&lt;div&gt;});&lt;/div&gt;&lt;br&gt;&lt;div&gt;&lt;span style=&quot;color: #569cd6&quot;&gt;type&lt;/span&gt; &lt;span style=&quot;color: #4ec9b0&quot;&gt;Action&lt;/span&gt; = &lt;span style=&quot;color: #4ec9b0&quot;&gt;AddHero&lt;/span&gt; | &lt;span style=&quot;color: #4ec9b0&quot;&gt;DeleteHero&lt;/span&gt;;&lt;/div&gt;&lt;/div&gt;" style="text;html=1;resizable=0;autosize=1;align=left;verticalAlign=middle;points=[];fillColor=none;strokeColor=none;rounded=0;fontColor=#33FF33;" parent="1" vertex="1">
                    <mxGeometry x="631" y="171" width="418" height="327" as="geometry"/>
                </mxCell>
                <mxCell id="20" value="Button" style="text;html=1;resizable=0;autosize=1;align=center;verticalAlign=middle;points=[];fillColor=none;strokeColor=none;rounded=0;" vertex="1" parent="1">
                    <mxGeometry x="-55" y="-217" width="45" height="18" as="geometry"/>
                </mxCell>
                <mxCell id="21" style="edgeStyle=none;html=1;exitX=0.482;exitY=0.785;exitDx=0;exitDy=0;fontSize=17;exitPerimeter=0;entryX=0.5;entryY=0;entryDx=0;entryDy=0;" edge="1" parent="1" source="20" target="JtPhZTcKICCbWqP8Aqum-15">
                    <mxGeometry relative="1" as="geometry">
                        <mxPoint y="-190" as="targetPoint"/>
                        <mxPoint x="-11" y="-106" as="sourcePoint"/>
                    </mxGeometry>
                </mxCell>
                <mxCell id="24" style="edgeStyle=none;html=1;entryX=0.5;entryY=0;entryDx=0;entryDy=0;" edge="1" parent="1" source="22" target="4">
                    <mxGeometry relative="1" as="geometry"/>
                </mxCell>
                <mxCell id="22" value="Button" style="text;html=1;resizable=0;autosize=1;align=center;verticalAlign=middle;points=[];fillColor=none;strokeColor=none;rounded=0;" vertex="1" parent="1">
                    <mxGeometry x="712" y="-220" width="45" height="18" as="geometry"/>
                </mxCell>
            </root>
        </mxGraphModel>
    </diagram>
</mxfile>